<?xml version="1.0" encoding="utf-8"?>
<!-- Generator: Adobe Illustrator 18.0.0, SVG Export Plug-In . SVG Version: 6.00 Build 0)  -->
<!DOCTYPE svg PUBLIC "-//W3C//DTD SVG 1.1//EN" "http://www.w3.org/Graphics/SVG/1.1/DTD/svg11.dtd">
<svg version="1.1" xmlns="http://www.w3.org/2000/svg" xmlns:xlink="http://www.w3.org/1999/xlink" x="0px" y="0px"
	 viewBox="0 0 184.8 116.4" enable-background="new 0 0 184.8 116.4" xml:space="preserve">
<g id="Foursquare">
</g>
<g id="One">
	<circle fill="#4180C2" cx="88" cy="64.9" r="47.4"/>
	<circle fill="#646A72" cx="22.6" cy="23.2" r="20.7"/>
	<circle fill="#646A72" cx="159.2" cy="27.3" r="25.5"/>
	<circle fill="#646A72" cx="20.7" cy="71.4" r="10"/>
	<circle fill="#646A72" cx="149.7" cy="74.9" r="5.4"/>
	<path id="link-icon_1_" fill="#C3C7CD" d="M15.6,100.2c0.5-0.5,1-0.9,1.5-1.2c3.1-1.7,7-0.8,9,2.2l-2.4,2.4
		c-0.7-1.6-2.4-2.5-4.1-2.1c-0.6,0.1-1.2,0.5-1.7,1l-4.6,4.6c-1.4,1.4-1.4,3.7,0,5c1.4,1.4,3.7,1.4,5,0l1.4-1.4
		c1.3,0.5,2.7,0.7,4,0.6l-3.1,3.1c-2.7,2.7-7,2.7-9.7,0c-2.7-2.7-2.7-7,0-9.7L15.6,100.2z M22.8,92.9L19.7,96c1.4-0.1,2.7,0.1,4,0.6
		l1.4-1.4c1.4-1.4,3.7-1.4,5,0c1.4,1.4,1.4,3.7,0,5l-4.6,4.6c-1.4,1.4-3.7,1.4-5,0c-0.3-0.3-0.6-0.7-0.8-1.1l-2.4,2.4
		c0.3,0.4,0.5,0.7,0.8,1c0.9,0.9,2,1.5,3.2,1.8c1.6,0.4,3.4,0.2,4.9-0.7c0.6-0.3,1.1-0.7,1.5-1.2l4.6-4.6c2.7-2.7,2.7-7,0-9.7
		C29.8,90.3,25.5,90.3,22.8,92.9z"/>
	<path id="link-icon_2_" fill="#C3C7CD" d="M154.2,25.5c0.4-0.4,0.8-0.7,1.3-0.9c2.5-1.4,5.7-0.6,7.4,1.8l-2,2c-0.6-1.3-2-2-3.3-1.7
		c-0.5,0.1-1,0.4-1.4,0.8l-3.7,3.7c-1.1,1.1-1.1,3,0,4.1c1.1,1.1,3,1.1,4.1,0l1.2-1.2c1.1,0.4,2.2,0.6,3.3,0.5l-2.5,2.5
		c-2.2,2.2-5.7,2.2-7.9,0c-2.2-2.2-2.2-5.7,0-7.9L154.2,25.5z M160.1,19.5l-2.5,2.5c1.1-0.1,2.2,0.1,3.3,0.5l1.2-1.2
		c1.1-1.1,3-1.1,4.1,0c1.1,1.1,1.1,3,0,4.1l-3.7,3.7c-1.1,1.1-3,1.1-4.1,0c-0.3-0.3-0.5-0.6-0.6-0.9l-2,2c0.2,0.3,0.4,0.6,0.7,0.9
		c0.7,0.7,1.6,1.2,2.6,1.5c1.3,0.3,2.8,0.1,4-0.5c0.5-0.2,0.9-0.6,1.3-0.9l3.7-3.7c2.2-2.2,2.2-5.7,0-7.9
		C165.8,17.3,162.3,17.3,160.1,19.5z"/>
	<path id="link-icon_3_" fill="#C3C7CD" d="M18.6,21c0.3-0.3,0.6-0.5,1-0.7c2-1.1,4.5-0.5,5.8,1.4l-1.5,1.5c-0.4-1-1.5-1.6-2.6-1.3
		c-0.4,0.1-0.8,0.3-1.1,0.6l-2.9,2.9c-0.9,0.9-0.9,2.3,0,3.2c0.9,0.9,2.3,0.9,3.2,0l0.9-0.9c0.8,0.3,1.7,0.5,2.6,0.4l-2,2
		c-1.7,1.7-4.5,1.7-6.2,0c-1.7-1.7-1.7-4.5,0-6.2L18.6,21z M23.3,16.3l-2,2c0.9-0.1,1.8,0.1,2.6,0.4l0.9-0.9c0.9-0.9,2.3-0.9,3.2,0
		c0.9,0.9,0.9,2.3,0,3.2L25.1,24c-0.9,0.9-2.4,0.9-3.2,0c-0.2-0.2-0.4-0.5-0.5-0.7l-1.5,1.5c0.2,0.2,0.3,0.5,0.5,0.7
		c0.6,0.6,1.3,1,2.1,1.2c1.1,0.3,2.2,0.1,3.2-0.4c0.4-0.2,0.7-0.4,1-0.7l2.9-2.9c1.7-1.7,1.7-4.5,0-6.2C27.8,14.6,25,14.6,23.3,16.3
		z"/>
	<path fill="#FFFFFF" d="M112.9,81.3l26.8,16.7L129,101l8.9,12.5l-3.8,2.7l-8.8-12.8l-6.3,8.9L112.9,81.3"/>
	<text transform="matrix(1 0 0 1 59.3333 72.4263)" fill="#FFFFFF" font-family="'Chalkboard-Bold'" font-size="25">www</text>
</g>
<g id="Two">
</g>
<g id="Three">
</g>
<g id="Layer_5">
</g>
</svg>
