<?xml version="1.0" encoding="utf-8"?>
<!-- Generator: Adobe Illustrator 18.0.0, SVG Export Plug-In . SVG Version: 6.00 Build 0)  -->
<!DOCTYPE svg PUBLIC "-//W3C//DTD SVG 1.1//EN" "http://www.w3.org/Graphics/SVG/1.1/DTD/svg11.dtd">
<svg version="1.1" xmlns="http://www.w3.org/2000/svg" xmlns:xlink="http://www.w3.org/1999/xlink" x="0px" y="0px"
	 viewBox="0 0 145.6 126.9" enable-background="new 0 0 145.6 126.9" xml:space="preserve">
<g id="Foursquare">
</g>
<g id="One">
</g>
<g id="Two">
	<g>
		<path fill="#FFFFFF" d="M96.6,5c3.9,0,7,3.1,7,7v101.9c0,3.9-3.1,7-7,7H51.2c-3.9,0-7-3.1-7-7V12c0-3.9,3.1-7,7-7H96.6 M96.6,0
			H51.2c-6.6,0-12,5.4-12,12v101.9c0,6.6,5.4,12,12,12h45.4c6.6,0,12-5.4,12-12V12C108.6,5.4,103.2,0,96.6,0L96.6,0z"/>
	</g>
	<rect x="42.9" y="106.1" fill="#FFFFFF" width="62" height="15.6"/>
	<circle fill="#646A72" cx="73.9" cy="116.2" r="4.5"/>
	<path id="link-icon_4_" fill="#4180C2" d="M67.4,55c0.6-0.6,1.3-1.1,2-1.5c4-2.2,9.1-1,11.7,2.9L78,59.5c-0.9-2-3.1-3.2-5.3-2.7
		C71.8,57,71,57.4,70.4,58l-6,6c-1.8,1.8-1.8,4.8,0,6.6c1.8,1.8,4.8,1.8,6.6,0l1.8-1.8c1.7,0.7,3.5,0.9,5.2,0.8L74,73.6
		c-3.5,3.5-9.1,3.5-12.6,0c-3.5-3.5-3.5-9.1,0-12.6L67.4,55z M76.8,45.5l-4.1,4.1c1.8-0.1,3.6,0.1,5.2,0.8l1.8-1.8
		c1.8-1.8,4.8-1.8,6.6,0s1.8,4.8,0,6.6l-6,6c-1.8,1.8-4.8,1.8-6.6,0c-0.4-0.4-0.8-0.9-1-1.5l-3.1,3.1c0.3,0.5,0.7,0.9,1.1,1.4
		c1.1,1.1,2.6,2,4.2,2.4c2.1,0.5,4.4,0.2,6.4-0.9c0.7-0.4,1.4-0.9,2-1.5l6-6c3.5-3.5,3.5-9.1,0-12.6C86,42,80.3,42,76.8,45.5z"/>
	<path id="link-icon_5_" fill="#C3C7CD" d="M125.6,55.9c0.5-0.5,1-0.9,1.6-1.2c3.2-1.8,7.4-0.8,9.5,2.3l-2.5,2.5
		c-0.7-1.6-2.5-2.6-4.3-2.2c-0.7,0.2-1.3,0.5-1.8,1l-4.8,4.8c-1.5,1.5-1.5,3.9,0,5.3c1.5,1.5,3.9,1.5,5.3,0L130,67
		c1.4,0.5,2.8,0.8,4.2,0.6l-3.3,3.3c-2.8,2.8-7.4,2.8-10.2,0c-2.8-2.8-2.8-7.4,0-10.2L125.6,55.9z M133.2,48.2l-3.3,3.3
		c1.4-0.1,2.9,0.1,4.2,0.6l1.5-1.5c1.5-1.5,3.9-1.5,5.3,0s1.5,3.9,0,5.3l-4.8,4.8c-1.5,1.5-3.9,1.5-5.3,0c-0.3-0.3-0.6-0.8-0.8-1.2
		l-2.5,2.5c0.3,0.4,0.5,0.7,0.9,1.1c0.9,0.9,2.1,1.6,3.4,1.9c1.7,0.4,3.6,0.2,5.2-0.7c0.6-0.3,1.1-0.7,1.6-1.2l4.8-4.8
		c2.8-2.8,2.8-7.4,0-10.2C140.6,45.4,136.1,45.4,133.2,48.2z"/>
	<path id="link-icon_6_" fill="#C3C7CD" d="M9.2,55.9c0.5-0.5,1-0.9,1.6-1.2c3.2-1.8,7.4-0.8,9.5,2.3l-2.5,2.5
		c-0.7-1.6-2.5-2.6-4.3-2.2c-0.7,0.2-1.3,0.5-1.8,1l-4.8,4.8c-1.5,1.5-1.5,3.9,0,5.3c1.5,1.5,3.9,1.5,5.3,0l1.5-1.5
		c1.4,0.5,2.8,0.8,4.2,0.6l-3.3,3.3c-2.8,2.8-7.4,2.8-10.2,0c-2.8-2.8-2.8-7.4,0-10.2L9.2,55.9z M16.9,48.2l-3.3,3.3
		c1.4-0.1,2.9,0.1,4.2,0.6l1.5-1.5c1.5-1.5,3.9-1.5,5.3,0s1.5,3.9,0,5.3l-4.8,4.8c-1.5,1.5-3.9,1.5-5.3,0c-0.3-0.3-0.6-0.8-0.8-1.2
		l-2.5,2.5c0.3,0.4,0.5,0.7,0.9,1.1c0.9,0.9,2.1,1.6,3.4,1.9c1.7,0.4,3.6,0.2,5.2-0.7c0.6-0.3,1.1-0.7,1.6-1.2l4.8-4.8
		c2.8-2.8,2.8-7.4,0-10.2C24.3,45.4,19.7,45.4,16.9,48.2z"/>
	<path fill="#777E98" d="M143.8,196.7c0,0,44.8-24.6,51.2-82.9c0,0,3.4,57.2-49.4,84.4C145.6,198.2,142.8,199.7,143.8,196.7z"/>
</g>
<g id="Three">
</g>
<g id="Layer_5">
</g>
</svg>
