<?xml version="1.0" encoding="utf-8"?>
<!-- Generator: Adobe Illustrator 18.0.0, SVG Export Plug-In . SVG Version: 6.00 Build 0)  -->
<!DOCTYPE svg PUBLIC "-//W3C//DTD SVG 1.1//EN" "http://www.w3.org/Graphics/SVG/1.1/DTD/svg11.dtd">
<svg version="1.1" xmlns="http://www.w3.org/2000/svg" xmlns:xlink="http://www.w3.org/1999/xlink" x="0px" y="0px"
	 viewBox="0 0 116.6 131.3" enable-background="new 0 0 116.6 131.3" xml:space="preserve">
<g id="Foursquare">
</g>
<g id="One">
</g>
<g id="Two">
</g>
<g id="Three">
	<g>
		<path fill="#FFFFFF" d="M78.8,7.1l32.8,32.8v78.3c0,3.9-3.1,7-7,7H13.2c-3.9,0-7-3.1-7-7V14.1c0-3.9,3.1-7,7-7H78.8 M80.9,2.1
			H13.2c-6.6,0-12,5.4-12,12v104.1c0,6.6,5.4,12,12,12h91.4c6.6,0,12-5.4,12-12V37.8L80.9,2.1L80.9,2.1z"/>
	</g>
	<g>
		<path fill="#4180C2" d="M81.6,43.5H30.3c-2.4,0-4.5-2-4.5-4.5v0c0-2.4,2-4.5,4.5-4.5h51.3c2.4,0,4.5,2,4.5,4.5v0
			C86.1,41.5,84,43.5,81.6,43.5z"/>
		<path fill="#646A72" d="M68.5,58H30.3c-2.4,0-4.5-2-4.5-4.5v0c0-2.4,2-4.5,4.5-4.5h38.2c2.4,0,4.5,2,4.5,4.5v0
			C72.9,56,70.9,58,68.5,58z"/>
		<path fill="#646A72" d="M84.9,74.4H46.7c-2.4,0-4.5-2-4.5-4.5v0c0-2.4,2-4.5,4.5-4.5h38.2c2.4,0,4.5,2,4.5,4.5v0
			C89.3,72.4,87.3,74.4,84.9,74.4z"/>
		<path fill="#646A72" d="M70.6,90.8H46.7c-2.5,0-4.5-2-4.5-4.5v0c0-2.5,2-4.5,4.5-4.5h23.9c2.5,0,4.5,2,4.5,4.5v0
			C75.1,88.8,73.1,90.8,70.6,90.8z"/>
		<path fill="#4180C2" d="M65,106.3H31.5c-2.4,0-4.5-2-4.5-4.5v0c0-2.4,2-4.5,4.5-4.5H65c2.4,0,4.5,2,4.5,4.5v0
			C69.5,104.3,67.5,106.3,65,106.3z"/>
	</g>
</g>
<g id="Layer_5">
</g>
</svg>
